<?xml version="1.0" encoding="utf-8"?>

<!-- The icon can be used freely in both personal and commercial projects with no attribution required, but always appreciated. 
You may NOT sub-license, resell, rent, redistribute or otherwise transfer the icon without express written permission from iconmonstr.com -->

<!DOCTYPE svg PUBLIC "-//W3C//DTD SVG 1.1//EN" "http://www.w3.org/Graphics/SVG/1.1/DTD/svg11.dtd">
<svg version="1.1" xmlns="http://www.w3.org/2000/svg" xmlns:xlink="http://www.w3.org/1999/xlink" x="0px" y="0px"
	 width="512px" height="512px" viewBox="0 0 512 512" enable-background="new 0 0 512 512" xml:space="preserve">
<path id="database-6-icon" d="M384.209,270.801c-42.963,0-77.793,34.828-77.793,77.791c0,42.964,34.83,77.791,77.793,77.791
	S462,391.556,462,348.592C462,305.629,427.172,270.801,384.209,270.801z M432.018,362.727h-33.673v33.673h-26.006v-33.673h-33.673
	v-26.005h33.673V303.05h26.006v33.672h33.673V362.727z M50,109.87C50,76.805,124.375,50,216.122,50s166.122,26.805,166.122,59.87
	s-74.375,59.87-166.122,59.87S50,142.936,50,109.87z M50,207.23v-46.225c10.283,7.392,23.186,13.907,38.484,19.422
	c34.557,12.454,79.885,19.312,127.638,19.312s93.082-6.858,127.638-19.312c15.3-5.515,28.201-12.03,38.484-19.421v46.224
	c0,33.065-74.375,59.87-166.122,59.87S50,240.296,50,207.23z M50,304.471v-46.104c10.283,7.391,23.186,13.907,38.484,19.421
	c34.557,12.454,79.885,19.312,127.638,19.312c26.968,0,53.16-2.188,77.078-6.336c-13.137,20.584-18.766,44.931-16.165,69.423
	c-18.86,2.68-39.41,4.152-60.913,4.152C124.375,364.34,50,337.536,50,304.471z M334.32,444.194
	C304.202,455.187,262.373,462,216.122,462C124.375,462,50,435.196,50,402.131v-46.524c10.283,7.391,23.186,13.907,38.484,19.422
	c34.557,12.453,79.885,19.312,127.638,19.312c23.694,0,46.789-1.69,68.271-4.913C294.145,413.27,312.242,432.642,334.32,444.194z"/>
</svg>
