<?xml version="1.0" encoding="utf-8"?>

<!-- The icon can be used freely in both personal and commercial projects with no attribution required, but always appreciated. 
You may NOT sub-license, resell, rent, redistribute or otherwise transfer the icon without express written permission from iconmonstr.com -->

<!DOCTYPE svg PUBLIC "-//W3C//DTD SVG 1.1//EN" "http://www.w3.org/Graphics/SVG/1.1/DTD/svg11.dtd">
<svg version="1.1" xmlns="http://www.w3.org/2000/svg" xmlns:xlink="http://www.w3.org/1999/xlink" x="0px" y="0px"
	 width="512px" height="512px" viewBox="0 0 512 512" enable-background="new 0 0 512 512" xml:space="preserve">
<path id="database-2-icon" d="M368.978,68.579C338.561,56.598,298.438,50,256,50c-42.437,0-82.56,6.598-112.978,18.579
	C108.186,82.301,89,102.292,89,124.87v262.261c0,22.578,19.186,42.569,54.022,56.291C173.44,455.402,213.562,462,256,462
	s82.561-6.598,112.978-18.579C403.814,429.7,423,409.709,423,387.131V124.87C423,102.292,403.814,82.301,368.978,68.579z
	 M154.017,96.492C181.018,85.857,217.235,80,256,80s74.983,5.857,101.983,16.492C383.829,106.672,393,118.141,393,124.87
	s-9.171,18.198-35.017,28.378c-27,10.635-63.219,16.492-101.983,16.492s-74.982-5.857-101.983-16.492
	C128.171,143.068,119,131.598,119,124.87S128.171,106.672,154.017,96.492z M393,387.131c0,6.729-9.171,18.197-35.017,28.378
	C330.983,426.144,294.765,432,256,432s-74.982-5.856-101.983-16.491C128.171,405.328,119,393.859,119,387.131v-39.344
	c6.901,4.374,14.922,8.391,24.022,11.975c30.418,11.98,70.54,18.578,112.978,18.578s82.561-6.598,112.978-18.579
	c9.101-3.584,17.121-7.6,24.022-11.975V387.131z M393,303.471c0,6.729-9.171,18.197-35.017,28.378
	c-27,10.635-63.219,16.491-101.983,16.491s-74.982-5.856-101.983-16.491C128.171,321.668,119,310.199,119,303.471v-44.924
	c6.901,4.374,14.922,8.391,24.022,11.975c30.418,11.98,70.541,18.579,112.978,18.579c42.438,0,82.561-6.599,112.978-18.579
	c9.101-3.584,17.121-7.601,24.022-11.975V303.471z M357.983,242.608c-27,10.636-63.219,16.492-101.983,16.492
	s-74.982-5.856-101.983-16.492C128.171,232.428,119,220.959,119,214.23v-45.044c6.901,4.374,14.922,8.39,24.022,11.975
	C173.44,193.142,213.562,199.74,256,199.74s82.561-6.598,112.978-18.579c9.101-3.584,17.121-7.6,24.022-11.975v45.044
	C393,220.959,383.829,232.428,357.983,242.608z"/>
</svg>
