<?xml version="1.0" encoding="utf-8"?>

<!-- The icon can be used freely in both personal and commercial projects with no attribution required, but always appreciated. 
You may NOT sub-license, resell, rent, redistribute or otherwise transfer the icon without express written permission from iconmonstr.com -->

<!DOCTYPE svg PUBLIC "-//W3C//DTD SVG 1.1//EN" "http://www.w3.org/Graphics/SVG/1.1/DTD/svg11.dtd">
<svg version="1.1" xmlns="http://www.w3.org/2000/svg" xmlns:xlink="http://www.w3.org/1999/xlink" x="0px" y="0px"
	 width="512px" height="512px" viewBox="0 0 512 512" enable-background="new 0 0 512 512" xml:space="preserve">
<path id="database-3-icon" d="M89.878,109.87C89.878,76.805,164.254,50,256,50c91.747,0,166.122,26.805,166.122,59.87
	S347.747,169.74,256,169.74C164.254,169.74,89.878,142.936,89.878,109.87z M256,394.34c-47.752,0-93.082-6.858-127.637-19.312
	c-15.3-5.515-28.202-12.031-38.485-19.422v46.524C89.878,435.196,164.254,462,256,462c91.747,0,166.122-26.804,166.122-59.869
	v-46.524c-10.283,7.391-23.185,13.907-38.484,19.422C349.082,387.481,303.753,394.34,256,394.34z M256,199.74
	c-47.752,0-93.082-6.858-127.638-19.312c-15.3-5.515-28.201-12.03-38.484-19.422v46.225c0,33.065,74.376,59.87,166.122,59.87
	c91.747,0,166.122-26.805,166.122-59.87v-46.224c-10.283,7.391-23.185,13.906-38.484,19.421
	C349.082,192.882,303.753,199.74,256,199.74z M155.936,286.002l-8.242,63.863c6.221,1.929,12.844,3.694,19.815,5.278l8.379-64.919
	C169.029,288.978,162.366,287.569,155.936,286.002z M298.224,295.268l-8.758,67.856c7.098-0.522,14.027-1.212,20.764-2.05
	l8.794-68.138C312.229,293.866,305.286,294.645,298.224,295.268z M334.714,290.474l-8.817,68.32
	c7.319-1.226,14.348-2.637,21.042-4.218l8.842-68.504C349.002,287.718,341.963,289.184,334.714,290.474z M262.121,297.059
	l-8.682,67.27c0.854,0.005,1.705,0.012,2.561,0.012c6.076,0,12.073-0.121,17.98-0.351l8.727-67.613
	C275.922,296.747,269.051,296.973,262.121,297.059z M400.865,333.786c13.529-8.665,21.257-18.664,21.257-29.315v-46.104
	c-3.821,2.746-8.006,5.372-12.539,7.87L400.865,333.786z M128.362,277.788c-2.359-0.851-4.654-1.727-6.898-2.624l-7.771,60.208
	c5.592,3.338,12.059,6.463,19.293,9.334l8.097-62.733C136.702,280.656,132.454,279.263,128.362,277.788z M226.362,296.204
	l-8.589,66.54c6.634,0.563,13.421,0.982,20.336,1.249l8.645-66.979C239.886,296.886,233.081,296.612,226.362,296.204z
	 M89.878,258.366v46.104c0,7.129,3.465,13.966,9.809,20.308l7.248-56.153C100.634,265.427,94.938,262.003,89.878,258.366z
	 M190.948,292.657l-8.456,65.513c6.478,1.153,13.188,2.163,20.11,3.01l8.537-66.151
	C204.283,294.383,197.543,293.593,190.948,292.657z M383.638,277.788c-3.843,1.385-7.826,2.696-11.925,3.941l-8.85,68.575
	c7.814-2.368,15.021-4.99,21.508-7.833l8.828-68.396C390.123,275.358,386.939,276.598,383.638,277.788z"/>
</svg>
