<?xml version="1.0" encoding="utf-8"?>
<!-- Generator: Adobe Illustrator 18.1.1, SVG Export Plug-In . SVG Version: 6.00 Build 0)  -->
<svg version="1.1" id="Layer_1" xmlns="http://www.w3.org/2000/svg" xmlns:xlink="http://www.w3.org/1999/xlink" x="0px" y="0px"
	 viewBox="0 0 256 256" enable-background="new 0 0 256 256" xml:space="preserve">
<rect x="17" y="20" fill="#FFFFFF" stroke="#000000" stroke-width="10" stroke-miterlimit="10" width="222" height="147"/>
<rect x="17" y="167" fill="#FFFFFF" stroke="#000000" stroke-width="10" stroke-miterlimit="10" width="222" height="74"/>
<line fill="none" stroke="#000000" stroke-width="10" stroke-miterlimit="10" x1="39" y1="49" x2="172" y2="49"/>
<line fill="none" stroke="#000000" stroke-width="10" stroke-miterlimit="10" x1="76" y1="87" x2="158" y2="87"/>
<line fill="none" stroke="#000000" stroke-width="10" stroke-miterlimit="10" x1="43" y1="128" x2="201" y2="128"/>
<line fill="none" stroke="#000000" stroke-width="10" stroke-miterlimit="10" x1="39" y1="184.7" x2="76" y2="203.3"/>
<line fill="none" stroke="#000000" stroke-width="10" stroke-miterlimit="10" x1="76" y1="204" x2="39" y2="222"/>
<line fill="none" stroke="#000000" stroke-width="10" stroke-miterlimit="10" x1="98" y1="189" x2="128" y2="189"/>
<line fill="none" stroke="#000000" stroke-width="10" stroke-miterlimit="10" x1="98" y1="222" x2="128" y2="222"/>
<line fill="none" stroke="#000000" stroke-width="10" stroke-miterlimit="10" x1="113" y1="227" x2="113" y2="189"/>
<g>
	
		<image overflow="visible" opacity="0.75" width="131" height="212" xlink:href="6B3CFE02BE3DB2FA.png"  transform="matrix(1 0 0 1 84 32)">
	</image>
	<g>
		<g>
			<line fill="none" stroke="#00A651" stroke-width="20" stroke-miterlimit="10" x1="142.5" y1="222" x2="142.5" y2="111.8"/>
			<g>
				<polygon fill="#00A651" points="192.4,126.3 142.5,40 92.6,126.3 				"/>
			</g>
		</g>
	</g>
</g>
</svg>
