<?xml version="1.0" encoding="utf-8"?>
<!-- Generator: Adobe Illustrator 18.1.1, SVG Export Plug-In . SVG Version: 6.00 Build 0)  -->
<svg version="1.1" id="Layer_1" xmlns="http://www.w3.org/2000/svg" xmlns:xlink="http://www.w3.org/1999/xlink" x="0px" y="0px"
	 viewBox="0 0 256 256" enable-background="new 0 0 256 256" xml:space="preserve">
<rect x="61" y="52" fill="#FFFFFF" stroke="#000000" stroke-width="10" stroke-miterlimit="10" width="122" height="63"/>
<rect x="-35" y="158" fill="#FFFFFF" stroke="#000000" stroke-width="10" stroke-miterlimit="10" width="112" height="63"/>
<rect x="173" y="158" fill="#FFFFFF" stroke="#000000" stroke-width="10" stroke-miterlimit="10" width="100" height="63"/>
<line fill="none" stroke="#000000" stroke-width="10" stroke-miterlimit="10" x1="77" y1="189.5" x2="111" y2="189.5"/>
<line fill="none" stroke="#000000" stroke-width="10" stroke-miterlimit="10" x1="111" y1="189.5" x2="111" y2="115"/>
<line fill="none" stroke="#000000" stroke-width="10" stroke-miterlimit="10" x1="173" y1="189.5" x2="147" y2="189.5"/>
<line fill="none" stroke="#000000" stroke-width="10" stroke-miterlimit="10" x1="147" y1="189.5" x2="147" y2="115"/>
<line fill="none" stroke="#000000" stroke-width="10" stroke-miterlimit="10" x1="122" y1="52" x2="122" y2="23"/>
<line fill="none" stroke="#000000" stroke-width="10" stroke-miterlimit="10" x1="122" y1="23" x2="217" y2="23"/>
<line fill="#00A651" stroke="#000000" stroke-width="10" stroke-miterlimit="10" x1="217" y1="23" x2="217" y2="-12"/>
<line fill="#00A651" x1="111" y1="74" x2="111" y2="91"/>
<line fill="#00A651" x1="111" y1="74" x2="111" y2="91"/>
<line fill="#00A651" stroke="#00A651" stroke-width="10" stroke-miterlimit="10" x1="111" y1="74" x2="111" y2="91"/>
<line fill="none" stroke="#00A651" stroke-width="10" stroke-miterlimit="10" x1="111" y1="68" x2="111" y2="98"/>
<line fill="none" stroke="#00A651" stroke-width="10" stroke-miterlimit="10" x1="111" y1="83" x2="122" y2="83.5"/>
<line fill="none" stroke="#00A651" stroke-width="10" stroke-miterlimit="10" x1="21" y1="176" x2="21" y2="201"/>
<line fill="none" stroke="#00A651" stroke-width="10" stroke-miterlimit="10" x1="21" y1="189.5" x2="31" y2="188.5"/>
<line fill="none" stroke="#00A651" stroke-width="10" stroke-miterlimit="10" x1="217" y1="176" x2="217" y2="201"/>
<line fill="none" stroke="#00A651" stroke-width="10" stroke-miterlimit="10" x1="217" y1="188.5" x2="228" y2="188.5"/>
</svg>
